<svg width="68" height="63" viewBox="0 0 68 63" fill="none" xmlns="http://www.w3.org/2000/svg">
<circle cx="25.4005" cy="2.69008" r="0.899067" fill="#770404"/>
<circle cx="21.6085" cy="1.60414" r="0.899067" fill="#770404"/>
<circle cx="17.6222" cy="2.18911" r="0.899067" fill="#770404"/>
<circle cx="15.2848" cy="5.45131" r="0.899067" fill="#770404"/>
<circle cx="14.5856" cy="9.33217" r="0.899067" fill="#770404"/>
<circle cx="41.5617" cy="4.14858" r="0.899067" fill="#770404"/>
<circle cx="45.1906" cy="2.01821" r="0.899067" fill="#770404"/>
<circle cx="49.0446" cy="1.43373" r="0.899067" fill="#770404"/>
<circle cx="52.7331" cy="2.80239" r="0.899067" fill="#770404"/>
<circle cx="54.4279" cy="6.45278" r="0.899067" fill="#770404"/>
<circle cx="54.9357" cy="10.445" r="0.899067" fill="#770404"/>
<circle cx="61.1515" cy="37.4328" r="0.899067" fill="#770404"/>
<circle cx="64.5612" cy="35.0045" r="0.899067" fill="#770404"/>
<circle cx="66.5704" cy="31.7853" r="0.899067" fill="#770404"/>
<circle cx="66.1842" cy="28.0036" r="0.899067" fill="#770404"/>
<circle cx="63.7736" cy="24.735" r="0.899067" fill="#770404"/>
<circle cx="60.6515" cy="22.5412" r="0.899067" fill="#770404"/>
<circle cx="54.1564" cy="50.9386" r="0.899067" fill="#770404"/>
<circle cx="54.0905" cy="54.8043" r="0.899067" fill="#770404"/>
<circle cx="52.8615" cy="58.7179" r="0.899067" fill="#770404"/>
<circle cx="49.8751" cy="61.0289" r="0.899067" fill="#770404"/>
<circle cx="46.0109" cy="61.2213" r="0.899067" fill="#770404"/>
<circle cx="42.3058" cy="59.7042" r="0.899067" fill="#770404"/>
<circle cx="27.4005" cy="57.2873" r="0.899067" fill="#770404"/>
<circle cx="23.9083" cy="59.3185" r="0.899067" fill="#770404"/>
<circle cx="20.109" cy="60.487" r="0.899067" fill="#770404"/>
<circle cx="16.2575" cy="59.4762" r="0.899067" fill="#770404"/>
<circle cx="13.9777" cy="56.2331" r="0.899067" fill="#770404"/>
<circle cx="13.3361" cy="52.3424" r="0.899067" fill="#770404"/>
<circle cx="13.3766" cy="48.445" r="0.899067" fill="#770404"/>
<circle cx="5.77407" cy="37.3756" r="0.899067" fill="#770404"/>
<circle cx="2.76332" cy="34.549" r="0.899067" fill="#770404"/>
<circle cx="1.33413" cy="30.7824" r="0.899067" fill="#770404"/>
<circle cx="2.56606" cy="27.2086" r="0.899067" fill="#770404"/>
<circle cx="5.38491" cy="24.4581" r="0.899067" fill="#770404"/>
<circle cx="34.3516" cy="31.437" r="6.18163" fill="#770404"/>
<path d="M54.2685 13.665C52.4105 27.9098 41.2624 47.9352 30.0454 56.8124" stroke="#770404" stroke-width="1.15917" stroke-linecap="round"/>
<path d="M13.9879 12.752C15.8459 26.9967 27.7742 48.4864 38.9912 57.3635" stroke="#770404" stroke-width="1.15917" stroke-linecap="round"/>
<path d="M57.297 21.4407C43.9446 16.1415 21.9228 16.9154 8.71309 22.4042" stroke="#770404" stroke-width="1.15917" stroke-linecap="round"/>
<path d="M57.7545 40.2854C44.4021 45.5846 22.3804 44.8106 9.17061 39.3219" stroke="#770404" stroke-width="1.15917" stroke-linecap="round"/>
<path d="M54.3377 47.5229C51.9062 33.3647 40.0001 13.2191 28.434 4.80191" stroke="#770404" stroke-width="1.15917" stroke-linecap="round"/>
<path d="M14.8377 45.3893C17.2692 31.2311 28.0661 13.5383 39.6323 5.1211" stroke="#770404" stroke-width="1.15917" stroke-linecap="round"/>
</svg>
